<?xml version="1.0" encoding="UTF-8" standalone="no"?>
<svg width="124px" height="42px" viewBox="0 0 124 42" version="1.1" xmlns="http://www.w3.org/2000/svg" xmlns:xlink="http://www.w3.org/1999/xlink">
    <!-- Generator: Sketch 39.1 (31720) - http://www.bohemiancoding.com/sketch -->
    <title>logo_mobile</title>
    <desc>Created with Sketch.</desc>
    <defs></defs>
    <g id="export" stroke="none" stroke-width="1" fill="none" fill-rule="evenodd">
        <g id="logo_mobile" fill="#FFFFFF">
            <g id="Group-2" transform="translate(1.000000, 1.000000)">
                <g id="Group">
                    <path d="M57.9432875,35.609183 L57.9432875,28.6779348 L56.0876003,28.6779348 L56.0876003,37.273183 L62.2314296,37.273183 L62.2314296,35.609183 L57.9432875,35.609183 Z M70.0554083,30.3419348 L70.0554083,28.6779348 L63.4225802,28.6779348 L63.4225802,37.273183 L70.0554083,37.273183 L70.0554083,35.609183 L65.2782675,35.609183 L65.2782675,33.7199799 L69.6040249,33.7199799 L69.6040249,32.0559799 L65.2782675,32.0559799 L65.2782675,30.3419348 L70.0554083,30.3419348 Z M78.2179244,37.4233183 C80.3243802,37.4233183 81.5656845,36.3348371 81.5656845,34.6958596 C81.5656845,33.1069273 80.3369186,32.5564311 78.4812314,32.1435589 C77.1521581,31.8432882 76.6380826,31.6431078 76.6380826,31.0175439 C76.6380826,30.5045815 77.1145428,30.0917093 77.9044637,30.0917093 C78.7319999,30.0917093 79.5971514,30.4295138 80.3619955,31.0425664 L81.3274544,29.7163709 C80.4497645,28.9656942 79.3589213,28.5277995 77.9546175,28.5277995 C76.0738534,28.5277995 74.7698569,29.6162807 74.7698569,31.205213 C74.7698569,32.869213 76.0613149,33.3821754 77.8793869,33.7950476 C79.1959218,34.0953183 79.6974588,34.2829875 79.6974588,34.8960401 C79.6974588,35.4340251 79.2209986,35.8594085 78.293155,35.8594085 C77.2023118,35.8594085 76.2744682,35.4340251 75.4594704,34.7333935 L74.3937041,35.9970326 C75.3967783,36.9228672 76.7258516,37.4233183 78.2179244,37.4233183 L78.2179244,37.4233183 Z M82.9198347,37.273183 L84.7755219,37.273183 L84.7755219,28.6779348 L82.9198347,28.6779348 L82.9198347,37.273183 Z M90.442891,33.8826266 L92.4490394,33.8826266 L92.4490394,35.1963108 C91.9600407,35.5466266 91.3581962,35.746807 90.7688901,35.746807 C89.3018942,35.746807 88.0605898,34.4706566 88.0605898,32.9693033 C88.0605898,31.4804612 89.3018942,30.2043108 90.7688901,30.2043108 C91.5588111,30.2043108 92.3988857,30.5796491 92.9129612,31.1676792 L94.2545729,29.9665965 C93.3894214,29.0657845 92.0603482,28.5277995 90.7688901,28.5277995 C88.2737431,28.5277995 86.1547489,30.5546266 86.1547489,32.9693033 C86.1547489,35.3839799 88.2737431,37.4233183 90.7688901,37.4233183 C92.0603482,37.4233183 93.3894214,36.8853333 94.2545729,35.9845213 L94.2545729,32.4438296 L90.442891,32.4438296 L90.442891,33.8826266 Z M95.8845685,37.273183 L97.7277173,37.273183 L97.7277173,31.7181754 L101.877937,37.273183 L103.733624,37.273183 L103.733624,28.6779348 L101.877937,28.6779348 L101.877937,34.2329424 L97.7277173,28.6779348 L95.8845685,28.6779348 L95.8845685,37.273183 Z M111.833448,37.273183 L113.914827,37.273183 L110.404067,28.6779348 L108.335227,28.6779348 L104.824467,37.273183 L106.893308,37.273183 L107.495152,35.7968521 L111.231603,35.7968521 L111.833448,37.273183 Z M108.084458,34.3580551 L109.363378,31.2177243 L110.642297,34.3580551 L108.084458,34.3580551 Z M116.723435,35.609183 L116.723435,28.6779348 L114.867747,28.6779348 L114.867747,37.273183 L121.011577,37.273183 L121.011577,35.609183 L116.723435,35.609183 Z" id="LE-SIGNAL"></path>
                    <path d="M64.5851175,15.1051228 L64.5851175,13.823198 L56.0261941,13.823198 L56.0261941,25.7243108 L64.5851175,25.7243108 L64.5851175,24.442386 L57.3977052,24.442386 L57.3977052,20.3021153 L63.8733206,20.3021153 L63.8733206,19.0201905 L57.3977052,19.0201905 L57.3977052,15.1051228 L64.5851175,15.1051228 Z M67.1718915,25.7243108 L68.5260416,25.7243108 L68.5260416,16.7335138 L72.953071,25.0313784 L77.3801003,16.7335138 L77.3801003,25.7243108 L78.7342504,25.7243108 L78.7342504,13.823198 L77.3801003,13.823198 L72.953071,22.1210627 L68.5260416,13.823198 L67.1718915,13.823198 L67.1718915,25.7243108 Z M85.8695801,25.9148672 C88.6473239,25.9148672 90.0709177,24.3730927 90.0709177,22.4848521 C90.0709177,20.3887318 88.4389932,19.5745363 86.1647153,19.0375138 C84.1334901,18.5524612 82.952949,18.1193784 82.952949,16.8894236 C82.952949,15.7980551 84.0293247,14.8279499 85.5050012,14.8279499 C86.7549859,14.8279499 87.9355271,15.399619 88.9250983,16.352401 L89.7584215,15.2956792 C88.6646848,14.2909273 87.3452565,13.597995 85.5744448,13.597995 C83.2828061,13.597995 81.5814379,15.0877995 81.5814379,16.9933634 C81.5814379,19.0548371 83.0918362,19.7997393 85.4876403,20.3540852 C87.5709482,20.8391378 88.6994066,21.3415138 88.6994066,22.6061153 C88.6994066,23.6801604 87.7619181,24.6849123 85.9216628,24.6849123 C84.2550164,24.6849123 83.0223926,23.9746566 82.0154604,22.9699048 L81.1647763,24.0266266 C82.3626784,25.2046115 83.9077984,25.9148672 85.8695801,25.9148672 L85.8695801,25.9148672 Z" id="EMS"></path>
                    <path d="M25.1858065,32.0505016 C26.4008148,32.1056097 27.3396849,32.6015823 28.0576443,33.4833114 C28.2785549,33.7588517 28.5546931,33.979284 28.886059,34.1446082 C29.7144738,34.6405808 30.7637991,34.3099324 31.260848,33.4833114 C31.7026692,32.7117984 31.5922139,31.8851774 30.8190268,31.1136645 C28.3337825,28.6338015 25.903766,26.2090466 23.4185217,23.7291836 C23.3080664,23.6189675 23.1423835,23.4536433 23.0319282,23.3434271 C22.7005623,22.9576707 22.7557899,22.4616981 23.0871558,22.1310497 C23.4185217,21.8004013 23.9155706,21.7452932 24.3021641,22.0759416 C24.4678471,22.1861577 24.5783024,22.3514819 24.6887577,22.4616981 C27.1740019,24.9415611 29.6592461,27.4214241 32.1444904,29.9012871 C32.6415392,30.3972597 33.1938157,30.6728 33.9117751,30.5074758 C34.6297346,30.3421516 35.0715558,29.9012871 35.2372387,29.1848822 C35.4581493,28.4684773 35.1820111,27.9173967 34.6849622,27.4214241 C32.0892627,24.886453 29.5487908,22.2963739 26.9530913,19.7614028 C26.5112701,19.3205383 26.4560425,18.7694576 26.842636,18.3837011 C27.2292296,17.9979447 27.781506,18.0530527 28.2233272,18.4939173 C29.7144738,19.9818351 31.2056203,21.4146448 32.6967669,22.9025626 C33.8013198,24.0047239 34.9058728,25.1068853 36.0104258,26.2090466 C36.9492959,27.0907757 38.2747594,26.9254515 38.8822636,25.8783982 C39.3240848,25.1619933 39.1584018,24.3353723 38.49567,23.6189675 C34.9611005,19.926727 31.3713033,16.3447027 27.781506,12.7626783 C27.7262784,12.7075703 27.6158231,12.5973541 27.4501402,12.487138 C27.3396849,12.5973541 27.2844572,12.7075703 27.1740019,12.8177864 C25.8485383,14.14038 24.5783024,15.4629736 23.1976111,16.7304591 C20.381001,19.3205383 16.0732444,18.8796737 13.6432278,15.8487301 C16.5150656,13.0382187 19.3869033,10.1725992 22.2587411,7.3620878 C17.6196185,2.67790214 9.39069877,3.33919893 5.69044626,8.73978946 C3.37088498,12.1013815 3.31565733,15.7385139 4.69634857,19.4307544 C5.41430801,21.3595367 6.6293163,23.0127787 8.23091814,24.3904804 C9.16978818,23.4536433 10.1086582,22.5168061 11.0475283,21.579969 C12.0416259,20.5880238 13.2014066,20.3124835 14.5268702,20.6982399 C15.8523338,21.0839964 16.7359762,21.9657255 17.0673421,23.2883191 C17.1777973,23.6189675 17.1777973,24.0047239 17.233025,24.3353723 C18.2823503,24.3353723 19.2212204,24.6660207 19.9391798,25.4375337 C20.7123669,26.2090466 20.9885052,27.1458837 21.0437328,28.1378289 C23.69466,28.2480451 25.0201236,30.0666113 24.9648959,31.9953936 C25.0753512,31.9953936 25.1305789,32.0505016 25.1858065,32.0505016 Z" id="Shape"></path>
                    <path d="M40.3952856,22.7319316 C40.3952856,22.7319316 40.4505132,22.6217154 40.5057409,22.6217154 C40.6161962,22.4563912 40.7266515,22.3461751 40.8371068,22.1808509 C42.4387086,19.811204 43.156668,17.2211249 42.7148468,14.3555054 C42.1625703,10.8285892 40.3952856,8.07318585 37.1920819,6.41994385 C33.1052358,4.27072925 27.5272432,4.98713411 23.9926737,8.23851005 C21.3417465,10.663265 18.9117299,13.2533441 16.3160304,15.7883152 L16.3160304,15.8985313 C17.9728599,17.1109088 20.4581041,16.8353684 22.0597059,15.2923426 C23.5508525,13.8595328 24.9867714,12.371615 26.4779179,10.8836972 C27.251105,10.1121843 27.6376985,10.1121843 28.4108856,10.8836972 C30.2333981,12.7022634 32.1111381,14.5759377 33.9336506,16.3945039 C36.0323012,18.4335024 38.1861796,20.582717 40.3952856,22.7319316 L40.3952856,22.7319316 Z" id="Path"></path>
                    <path d="M16.3169262,26.5912703 C15.2676009,27.5281074 14.2735032,28.5200526 13.3346331,29.5671058 C12.727129,30.2835107 12.8375843,31.2754559 13.5555437,31.9367527 C14.2182755,32.5980495 15.2676009,32.5980495 15.9303327,31.9918608 C16.8692027,31.1101317 17.8080727,30.1732946 18.6917151,29.2364574 C19.2439916,28.6853768 19.3544469,28.02408 19.023081,27.3076751 C18.6917151,26.6463783 18.1394386,26.3157299 17.2005686,26.2055138 C16.8946412,26.2055138 16.5930645,26.370838 16.3169262,26.5912703 Z" id="Path"></path>
                    <path d="M23.1867415,31.8392615 C23.1867414,31.3722419 22.8001479,30.5166679 22.0821885,30.2411276 C21.364229,29.9104792 20.7014972,30.0206953 20.1492208,30.571776 C19.2655784,31.398397 18.381936,32.280126 17.5535212,33.1618551 C16.7803341,33.933368 16.7803341,34.9804213 17.4430659,35.6968262 C18.216253,36.4683391 19.2655784,36.4683391 20.0387655,35.6968262 C20.9224078,34.8702052 21.7508226,34.0435842 22.5792373,33.1618551 C23.3054611,32.2723762 23.1867415,31.8392615 23.1867415,31.8392615 Z" id="Path"></path>
                    <path d="M9.08232233,26.66889 C9.19277763,27.495511 9.57937118,28.0465916 10.242103,28.37724 C10.9600624,28.7078884 11.6227942,28.5976723 12.1750707,28.0465916 C13.1139407,27.1648626 13.9975831,26.2280255 14.8812255,25.3462964 C15.599185,24.6298915 15.5439573,23.5828383 14.8812255,22.9215415 C14.1632661,22.2051366 13.1139407,22.1500285 12.3959813,22.8664334 C11.5123389,23.7481625 10.5734689,24.6298915 9.74505413,25.5667287 C9.41368823,25.842269 9.24800528,26.2831335 9.08232233,26.66889 L9.08232233,26.66889 Z" id="Path"></path>
                    <path d="M16.1878029,37.2407589 L2.74196527,37.2407589 L2.74196527,37.1656512 L2.70369237,37.1656512 L2.70369237,30.5291559 L4.46810339,30.5291559 L4.46810339,35.4763479 L15.0395866,35.4763479 C15.2036896,36.0883397 15.5153411,36.6267169 16.0021009,37.0777295 C16.0629833,37.1341407 16.1248929,37.1885018 16.1878029,37.2407589 Z M28.3286303,37.2407589 L44.697472,37.2407589 L44.697472,35.4763479 L31.8432539,35.4763479 C30.9184206,36.2057846 29.8365672,36.4101568 28.6492327,36.1408924 C28.5998374,36.5516282 28.4866283,36.9133828 28.3286303,37.2407589 Z M21.7699716,4.79507859 L23.722488,2.84256226 L25.8153764,4.93545066 C26.393574,4.65717736 26.9856472,4.41750012 27.5927273,4.21754754 L23.7309393,0.355759589 L23.7228808,0.36381811 L23.7144295,0.355366777 L20.1947418,3.87505439 C20.7349174,4.14251762 21.2614508,4.44915855 21.7699716,4.79507859 Z M4.0175793,22.5474709 L1.32935519,25.235695 L0.0817281904,23.988068 L3.14276644,20.9270298 C3.39780598,21.4887393 3.69065364,22.0281774 4.0175793,22.5474709 Z M43.8544562,20.4792765 L47.0008113,23.6256315 L45.7531843,24.8732585 L43.0541395,22.1742138 C43.3663803,21.6234386 43.6333414,21.0583652 43.8544562,20.4792765 Z" id="Combined-Shape"></path>
                    <path d="M21.4196548,39.3983381 C20.7315281,38.7117013 20.7315237,37.5984475 21.4189028,36.9125568 L24.0724496,34.2647556 C24.760161,33.5785333 25.8753469,33.5787183 26.563625,34.265506 L26.563625,34.265506 C27.2517518,34.9521428 27.2517562,36.0653967 26.564377,36.7512874 L23.9108303,39.3990885 C23.2231188,40.0853109 22.1079329,40.0851259 21.4196548,39.3983381 L21.4196548,39.3983381" id="Rectangle-4"></path>
                </g>
            </g>
        </g>
    </g>
</svg>