<?xml version="1.0" encoding="UTF-8" standalone="no"?>
<svg width="476px" height="439px" viewBox="0 0 476 439" version="1.1" xmlns="http://www.w3.org/2000/svg" xmlns:xlink="http://www.w3.org/1999/xlink">
    <!-- Generator: Sketch 39.1 (31720) - http://www.bohemiancoding.com/sketch -->
    <title>logo_white</title>
    <desc>Created with Sketch.</desc>
    <defs>
        <filter x="-50%" y="-50%" width="200%" height="200%" filterUnits="objectBoundingBox" id="filter-1">
            <feOffset dx="3" dy="2" in="SourceAlpha" result="shadowOffsetOuter1"></feOffset>
            <feGaussianBlur stdDeviation="86" in="shadowOffsetOuter1" result="shadowBlurOuter1"></feGaussianBlur>
            <feColorMatrix values="0 0 0 0 0   0 0 0 0 0   0 0 0 0 0  0 0 0 0.5 0" type="matrix" in="shadowBlurOuter1" result="shadowMatrixOuter1"></feColorMatrix>
            <feMerge>
                <feMergeNode in="shadowMatrixOuter1"></feMergeNode>
                <feMergeNode in="SourceGraphic"></feMergeNode>
            </feMerge>
        </filter>
    </defs>
    <g id="export" stroke="none" stroke-width="1" fill="none" fill-rule="evenodd">
        <g id="logo_white" fill="#FFFFFF">
            <g id="Group" filter="url(#filter-1)" transform="translate(104.000000, 85.000000)">
                <path d="M8.67954189,262.23505 L8.67954189,233.602574 L1.05257326,233.602574 L1.05257326,269.108911 L26.3040235,269.108911 L26.3040235,262.23505 L8.67954189,262.23505 Z M58.4609723,240.476436 L58.4609723,233.602574 L31.1997128,233.602574 L31.1997128,269.108911 L58.4609723,269.108911 L58.4609723,262.23505 L38.8266814,262.23505 L38.8266814,254.430891 L56.6057637,254.430891 L56.6057637,247.55703 L38.8266814,247.55703 L38.8266814,240.476436 L58.4609723,240.476436 Z M92.0093276,269.729109 C100.666968,269.729109 105.768791,265.232673 105.768791,258.462178 C105.768791,251.898416 100.718501,249.624356 93.0915326,247.918812 C87.628974,246.678416 85.5160975,245.851485 85.5160975,243.267327 C85.5160975,241.148317 87.4743732,239.442772 90.7209883,239.442772 C94.122204,239.442772 97.6780205,240.838218 100.821568,243.370693 L104.789653,237.892277 C101.182303,234.791287 96.6988826,232.982376 90.9271226,232.982376 C83.1970868,232.982376 77.8375953,237.478812 77.8375953,244.042574 C77.8375953,250.916436 83.1455532,253.035446 90.6179211,254.74099 C96.0289462,255.981386 98.090289,256.756634 98.090289,259.289109 C98.090289,261.511485 96.1320133,263.268713 92.318529,263.268713 C87.8351082,263.268713 84.0216239,261.511485 80.6719418,258.617228 L76.2915882,263.837228 C80.4142739,267.661782 85.8768325,269.729109 92.0093276,269.729109 L92.0093276,269.729109 Z M111.334417,269.108911 L118.961386,269.108911 L118.961386,233.602574 L111.334417,233.602574 L111.334417,269.108911 Z M142.25456,255.102772 L150.499932,255.102772 L150.499932,260.529505 C148.490122,261.976634 146.016511,262.803564 143.594433,262.803564 C137.565005,262.803564 132.463181,257.531881 132.463181,251.329901 C132.463181,245.179604 137.565005,239.907921 143.594433,239.907921 C146.841048,239.907921 150.293797,241.458416 152.406674,243.887525 L157.920766,238.925941 C154.364949,235.204752 148.902391,232.982376 143.594433,232.982376 C133.339252,232.982376 124.630079,241.35505 124.630079,251.329901 C124.630079,261.304752 133.339252,269.729109 143.594433,269.729109 C148.902391,269.729109 154.364949,267.506733 157.920766,263.785545 L157.920766,249.159208 L142.25456,249.159208 L142.25456,255.102772 Z M164.62013,269.108911 L172.195565,269.108911 L172.195565,246.161584 L189.253178,269.108911 L196.880146,269.108911 L196.880146,233.602574 L189.253178,233.602574 L189.253178,256.549901 L172.195565,233.602574 L164.62013,233.602574 L164.62013,269.108911 Z M230.170834,269.108911 L238.725407,269.108911 L224.296006,233.602574 L215.792967,233.602574 L201.363567,269.108911 L209.866606,269.108911 L212.340218,263.010297 L227.697222,263.010297 L230.170834,269.108911 Z M214.762296,257.066733 L220.01872,244.094257 L225.275144,257.066733 L214.762296,257.066733 Z M250.268927,262.23505 L250.268927,233.602574 L242.641958,233.602574 L242.641958,269.108911 L267.893408,269.108911 L267.893408,262.23505 L250.268927,262.23505 Z" id="LE-SIGNAL"></path>
                <path d="M138.145892,175.936497 C144.861619,176.242643 150.051044,178.997961 154.019428,183.896304 C155.24047,185.427037 156.766771,186.651622 158.598333,187.570062 C163.177238,190.32538 168.977184,188.488501 171.724527,183.896304 C174.166609,179.610254 173.556088,175.018057 169.282444,170.732007 C155.54573,156.955417 142.114276,143.484973 128.377562,129.708382 C127.767041,129.096089 126.85126,128.17765 126.24074,127.565357 C124.409178,125.422332 124.714438,122.667014 126.546,120.830135 C128.377562,118.993256 131.124905,118.68711 133.261727,120.523989 C134.177508,121.136282 134.788028,122.054721 135.398549,122.667014 C149.135263,136.443604 162.871977,150.220195 176.608692,163.996785 C179.356034,166.752103 182.408638,168.282835 186.377022,167.364396 C190.345406,166.445957 192.787488,163.996785 193.703269,160.016881 C194.924311,156.036977 193.398009,152.975513 190.650666,150.220195 C176.303431,136.137458 162.261457,121.748574 147.914222,107.665838 C145.472139,105.216666 145.166879,102.155201 147.303701,100.012176 C149.440524,97.8691511 152.493127,98.1752975 154.935209,100.624469 C163.177238,108.890423 171.419266,116.850231 179.661295,125.116185 C185.766501,131.239114 191.871707,137.362044 197.976914,143.484973 C203.166339,148.383316 210.492587,147.464876 213.85045,141.648094 C216.292533,137.66819 215.376752,133.075993 211.713628,129.096089 C192.176968,108.584277 172.335047,88.6847575 152.493127,68.7852381 C152.187866,68.4790916 151.577346,67.8667987 150.661565,67.2545058 C150.051044,67.8667987 149.745784,68.4790916 149.135263,69.0913845 C141.809016,76.4388994 134.788028,83.7864143 127.156521,90.8277827 C111.588245,105.216666 87.77794,102.767494 74.3464861,85.9294394 C90.2200225,70.3159703 106.093559,54.3963548 121.967095,38.7828857 C96.3252288,12.7604371 50.8414419,16.4341946 30.3890008,46.436547 C17.5680676,65.1114806 17.2628072,85.3171465 24.8943151,105.828959 C28.8626992,116.544085 35.5784261,125.728478 44.4309753,133.38214 C49.6204006,128.17765 54.809826,122.97316 59.9992513,117.768671 C65.493937,112.258034 71.9044036,110.727302 79.2306512,112.870327 C86.5568987,115.013352 91.4410638,119.911696 93.2726256,127.259211 C93.8831463,129.096089 93.8831463,131.239114 94.1884066,133.075993 C99.9883526,133.075993 105.177778,134.912872 109.146162,139.198922 C113.419806,143.484973 114.946108,148.689462 115.251368,154.200098 C129.903863,154.812391 137.230111,164.915224 136.924851,175.63035 C137.535371,175.63035 137.840632,175.936497 138.145892,175.936497 Z" id="Shape"></path>
                <path d="M222.213391,124.168265 C222.213391,124.168265 222.518651,123.555972 222.823911,123.555972 C223.434432,122.637532 224.044953,122.025239 224.655473,121.1068 C233.508022,107.942503 237.476407,93.5536193 235.034324,77.6340038 C231.981721,58.0406308 222.213391,42.7333081 204.508293,33.5489145 C181.919029,21.6092029 151.087737,25.5891068 131.551077,43.6517475 C116.898582,57.1221914 103.467128,71.5110747 89.1198935,85.5938116 L89.1198935,86.2061045 C98.2777029,92.9413264 112.014417,91.4105942 120.866966,82.8384935 C129.108995,74.8786857 137.045763,66.6127315 145.287791,58.3467772 C149.561436,54.0607269 151.698258,54.0607269 155.971902,58.3467772 C166.045493,68.4496102 176.424344,78.8585896 186.497934,88.9614225 C198.097826,100.288841 210.002978,112.228553 222.213391,124.168265 L222.213391,124.168265 Z" id="Path"></path>
                <path d="M89.124845,145.608372 C83.324899,150.812861 77.8302133,156.323498 72.640788,162.14028 C69.2829245,166.120184 69.8934452,171.63082 73.8618292,175.304578 C77.524953,178.978335 83.324899,178.978335 86.9880228,175.610724 C92.1774481,170.712381 97.3668735,165.507891 102.251039,160.303401 C105.303642,157.241937 105.914162,153.568179 104.0826,149.588276 C102.251039,145.914518 99.1984354,144.077639 94.00901,143.465347 C92.3180548,143.465347 90.6511466,144.383786 89.124845,145.608372 Z" id="Path"></path>
                <path d="M127.096441,174.762977 C127.09644,172.168504 124.959618,167.415462 120.991234,165.884729 C117.02285,164.047851 113.359726,164.660144 110.307123,167.721608 C105.422958,172.313805 100.538793,177.212148 95.9598885,182.110491 C91.6862441,186.396542 91.6862441,192.213324 95.3493678,196.193228 C99.6230122,200.479279 105.422958,200.479279 109.696603,196.193228 C114.580768,191.601031 119.159672,187.008835 123.738577,182.110491 C127.752641,177.169095 127.096441,174.762977 127.096441,174.762977 Z" id="Path"></path>
                <path d="M116.374105,215.866366 C121.982532,221.630518 128.100921,220.022032 131.153524,216.960567 C136.037689,212.062224 141.227115,207.163881 146.11128,201.959391 C150.079664,197.979487 149.774403,192.162704 146.11128,188.488947 C142.142895,184.509043 136.342949,184.202897 132.374565,188.182801 C127.18514,193.081144 122.300975,197.979487 117.41681,203.183977 C116.758578,203.79681 110.765678,210.102213 116.374105,215.866366 Z" id="Path"></path>
                <path d="M49.1369498,146.039579 C49.7474705,150.631776 51.8842927,153.69324 55.5474164,155.530119 C59.5158005,157.366998 63.1789243,156.754705 66.2315275,153.69324 C71.4209528,148.794897 76.3051179,143.590407 81.1892829,138.692064 C85.157667,134.71216 84.8524067,128.895378 81.1892829,125.22162 C77.2208988,121.241716 71.4209528,120.93557 67.4525687,124.915474 C62.5684037,129.813817 57.3789783,134.71216 52.8000736,139.91665 C50.9685117,141.447382 50.0527308,143.896554 49.1369498,146.039579 L49.1369498,146.039579 Z" id="Path"></path>
                <path d="M89.2996504,204.770367 L14.9803435,204.770367 L14.9803435,204.259958 L14.7440302,204.259958 L14.7440302,167.577994 L24.5460104,167.577994 L24.5460104,194.968387 L82.9531032,194.968387 C83.8601513,198.368236 85.5827457,201.359128 88.2732182,203.864676 C88.6097338,204.178062 88.9519275,204.480059 89.2996504,204.770367 Z M156.405762,204.770367 L246.881417,204.770367 L246.881417,194.968387 L175.832174,194.968387 C170.720335,199.020687 164.740596,200.156054 158.17783,198.660186 C157.904807,200.941982 157.279066,202.951667 156.405762,204.770367 Z M120.308057,24.6277639 L130.948728,13.987093 L142.345481,25.3838462 C145.547075,23.8262884 148.825657,22.4841672 152.187531,21.3638019 L131.010413,0.186684772 L130.945817,0.25128073 L130.884132,0.189595605 L111.590941,19.4827869 C114.580883,20.9789625 117.494695,22.6937657 120.308057,24.6277639 Z M21.9392427,122.996578 L7.1899233,137.745898 L0.258876636,130.814851 L17.1139658,113.959762 C18.5189246,117.092622 20.1342726,120.100927 21.9392427,122.996578 Z M242.292011,111.468282 L259.630199,128.80647 L252.699152,135.737517 L237.882215,120.92058 C239.60501,117.849163 241.075996,114.697868 242.292011,111.468282 Z" id="Combined-Shape"></path>
            </g>
        </g>
    </g>
</svg>