<?xml version="1.0" encoding="UTF-8" standalone="no"?>
<svg width="282px" height="100px" viewBox="0 0 282 100" version="1.1" xmlns="http://www.w3.org/2000/svg" xmlns:xlink="http://www.w3.org/1999/xlink">
    <!-- Generator: Sketch 39.1 (31720) - http://www.bohemiancoding.com/sketch -->
    <title>logo_header</title>
    <desc>Created with Sketch.</desc>
    <defs></defs>
    <g id="export" stroke="none" stroke-width="1" fill="none" fill-rule="evenodd">
        <g id="logo_header">
            <g id="Group-2" transform="translate(5.000000, 5.000000)">
                <path d="M48.1057936,88.6462608 C46.5603492,87.101328 46.5603394,84.5965069 48.1041046,83.0532527 L54.0636299,77.0957001 C55.6081414,75.5516999 58.1127058,75.5521161 59.6584899,77.0973886 L59.6584899,77.0973886 C61.2039342,78.6423214 61.2039441,81.1471425 59.6601789,82.6903966 L53.7006536,88.6479492 C52.1561421,90.1919495 49.6515777,90.1915332 48.1057936,88.6462608 L48.1057936,88.6462608" id="Rectangle-4" fill="#1B5F7A"></path>
                <g id="Group">
                    <path d="M130.133181,80.1206617 L130.133181,64.5253534 L125.965546,64.5253534 L125.965546,83.8646617 L139.763798,83.8646617 L139.763798,80.1206617 L130.133181,80.1206617 Z M157.335449,68.2693534 L157.335449,64.5253534 L142.438969,64.5253534 L142.438969,83.8646617 L157.335449,83.8646617 L157.335449,80.1206617 L146.606604,80.1206617 L146.606604,75.8699549 L156.3217,75.8699549 L156.3217,72.1259549 L146.606604,72.1259549 L146.606604,68.2693534 L157.335449,68.2693534 Z M175.667412,84.2024662 C180.398241,84.2024662 183.186051,81.7533835 183.186051,78.0656842 C183.186051,74.4905865 180.426401,73.2519699 176.258766,72.3230075 C173.273838,71.6473985 172.11929,71.1969925 172.11929,69.7894737 C172.11929,68.6353083 173.189359,67.7063459 174.963419,67.7063459 C176.82196,67.7063459 178.764979,68.466406 180.48272,69.8457744 L182.651017,66.8618346 C180.679838,65.172812 178.229944,64.1875489 175.076058,64.1875489 C170.852104,64.1875489 167.923495,66.6366316 167.923495,70.2117293 C167.923495,73.9557293 170.823944,75.1098947 174.9071,76.0388571 C177.863868,76.7144662 178.990256,77.1367218 178.990256,78.5160902 C178.990256,79.7265564 177.920188,80.6836692 175.83637,80.6836692 C173.386476,80.6836692 171.302659,79.7265564 169.472279,78.1501353 L167.078704,80.9933233 C169.33148,83.0764511 172.316408,84.2024662 175.667412,84.2024662 L175.667412,84.2024662 Z M186.227298,83.8646617 L190.394934,83.8646617 L190.394934,64.5253534 L186.227298,64.5253534 L186.227298,83.8646617 Z M203.123117,76.2359098 L207.628668,76.2359098 L207.628668,79.1916992 C206.53044,79.9799098 205.178775,80.4303158 203.855269,80.4303158 C200.560584,80.4303158 197.772774,77.5589774 197.772774,74.1809323 C197.772774,70.8310376 200.560584,67.9596992 203.855269,67.9596992 C205.62933,67.9596992 207.51603,68.8042105 208.670577,70.1272782 L211.683665,67.4248421 C209.740646,65.398015 206.755718,64.1875489 203.855269,64.1875489 C198.251489,64.1875489 193.4925,68.7479098 193.4925,74.1809323 C193.4925,79.6139549 198.251489,84.2024662 203.855269,84.2024662 C206.755718,84.2024662 209.740646,82.992 211.683665,80.9651729 L211.683665,72.9986165 L203.123117,72.9986165 L203.123117,76.2359098 Z M215.344425,83.8646617 L219.483901,83.8646617 L219.483901,71.3658947 L228.804761,83.8646617 L232.972396,83.8646617 L232.972396,64.5253534 L228.804761,64.5253534 L228.804761,77.0241203 L219.483901,64.5253534 L215.344425,64.5253534 L215.344425,83.8646617 Z M251.16356,83.8646617 L255.83807,83.8646617 L247.953355,64.5253534 L243.307005,64.5253534 L235.422289,83.8646617 L240.06864,83.8646617 L241.420305,80.5429173 L249.811895,80.5429173 L251.16356,83.8646617 Z M242.743811,77.3056241 L245.6161,70.2398797 L248.488389,77.3056241 L242.743811,77.3056241 Z M262.145842,80.1206617 L262.145842,64.5253534 L257.978207,64.5253534 L257.978207,83.8646617 L271.776459,83.8646617 L271.776459,80.1206617 L262.145842,80.1206617 Z" id="LE-SIGNAL" fill="#493730"></path>
                    <path d="M145.049879,33.9865263 L145.049879,31.1021955 L125.827636,31.1021955 L125.827636,57.8796992 L145.049879,57.8796992 L145.049879,54.9953684 L128.907874,54.9953684 L128.907874,45.6797594 L143.451274,45.6797594 L143.451274,42.7954286 L128.907874,42.7954286 L128.907874,33.9865263 L145.049879,33.9865263 Z M150.859441,57.8796992 L153.900688,57.8796992 L153.900688,37.650406 L163.843227,56.3206015 L173.785767,37.650406 L173.785767,57.8796992 L176.827014,57.8796992 L176.827014,31.1021955 L173.785767,31.1021955 L163.843227,49.772391 L153.900688,31.1021955 L150.859441,31.1021955 L150.859441,57.8796992 Z M192.852048,58.3084511 C199.090504,58.3084511 202.287712,54.8394586 202.287712,50.5909173 C202.287712,45.8746466 198.622619,44.0427068 193.514884,42.834406 C188.953013,41.7430376 186.301669,40.7686015 186.301669,38.001203 C186.301669,35.5456241 188.719071,33.3628872 192.03325,33.3628872 C194.840556,33.3628872 197.491899,34.6491429 199.714349,36.7929023 L201.585886,34.4152782 C199.129494,32.1545865 196.166227,30.5954887 192.189212,30.5954887 C187.042486,30.5954887 183.221431,33.9475489 183.221431,38.2350677 C183.221431,42.8733835 186.613592,44.5494135 191.99426,45.7966917 C196.673102,46.8880602 199.207475,48.018406 199.207475,50.8637594 C199.207475,53.2803609 197.101996,55.5410526 192.969019,55.5410526 C189.225945,55.5410526 186.45763,53.9429774 184.19619,51.6822857 L182.285663,54.0599098 C184.975997,56.7103759 188.446138,58.3084511 192.852048,58.3084511 L192.852048,58.3084511 Z" id="EMS" fill="#493730"></path>
                    <path d="M56.5640866,72.1136287 C59.2928391,72.2376219 61.4014207,73.3535602 63.0138654,75.3374506 C63.5100022,75.9574164 64.1301732,76.453389 64.8743785,76.8253684 C66.7348916,77.9413068 69.0915415,77.1973479 70.2078494,75.3374506 C71.200123,73.6015465 70.9520546,71.7416493 69.2155757,70.0057452 C63.6340364,64.4260534 58.1765313,58.9703548 52.5949919,53.3906631 C52.3469235,53.1426768 51.9748209,52.7706973 51.7267525,52.522711 C50.9825472,51.654759 51.1065815,50.5388206 51.8507867,49.7948617 C52.5949919,49.0509028 53.7112998,48.9269097 54.5795393,49.6708686 C54.9516419,49.9188549 55.1997103,50.2908343 55.4477787,50.5388206 C61.029318,56.1185124 66.6108574,61.6982041 72.1923967,67.2778959 C73.3087046,68.3938342 74.5490466,69.0138 76.1614913,68.6418205 C77.773936,68.2698411 78.7662097,67.2778959 79.1383123,65.6659849 C79.6344491,64.054074 79.0142781,62.8141425 77.8979702,61.6982041 C72.0683625,55.9945192 66.3627889,50.1668412 60.5331812,44.4631563 C59.5409075,43.4712111 59.4168733,42.2312796 60.2851128,41.3633275 C61.1533522,40.4953755 62.3936943,40.6193686 63.385968,41.6113138 C66.7348916,44.9591289 70.0838152,48.1829508 73.4327388,51.5307658 C75.9134229,54.0106288 78.3941071,56.4904918 80.8747912,58.9703548 C82.9833727,60.9542452 85.9601937,60.5822658 87.32457,58.2263959 C88.3168436,56.614485 87.944741,54.7545877 86.4563305,53.1426768 C78.5181413,44.8351357 70.4559178,36.775581 62.3936943,28.7160262 C62.2696601,28.5920331 62.0215917,28.3440468 61.6494891,28.0960605 C61.4014207,28.3440468 61.2773865,28.5920331 61.029318,28.8400194 C58.0524971,31.815855 55.1997103,34.7916906 52.0988551,37.643533 C45.7731105,43.4712111 36.0984424,42.4792659 30.6409373,35.6596426 C37.090716,29.335992 43.5404948,22.8883482 49.9902736,16.5646975 C39.5714002,6.0252798 21.0903033,7.5131976 12.7800114,19.6645263 C7.57057471,27.2281084 7.4465405,35.4116563 10.5473957,43.7191974 C12.1598404,48.0589576 14.8885929,51.7787521 18.4855849,54.8785809 C20.5941665,52.7706973 22.702748,50.6628138 24.8113295,48.5549302 C27.0439452,46.3230535 29.6486636,45.7030878 32.6254846,46.5710398 C35.6023056,47.4389919 37.5868529,49.4228823 38.3310581,52.3987179 C38.5791265,53.1426768 38.5791265,54.0106288 38.7031607,54.7545877 C41.0598107,54.7545877 43.1683922,55.4985466 44.7808369,57.2344507 C46.5173158,58.9703548 47.1374868,61.0782384 47.261521,63.3101151 C53.215163,63.5581014 56.191984,67.6498753 56.0679497,71.9896356 C56.3160182,71.9896356 56.4400524,72.1136287 56.5640866,72.1136287 Z" id="Shape" fill="#2F92BA"></path>
                    <path d="M90.722623,51.146846 C90.722623,51.146846 90.8466572,50.8988597 90.9706914,50.8988597 C91.2187598,50.5268803 91.4668282,50.278894 91.7148966,49.9069145 C95.3118886,44.5752091 96.9243333,38.747531 95.9320597,32.2998872 C94.6917176,24.3643256 90.722623,18.1646682 83.528639,14.4448737 C74.3501076,9.60914081 61.8226527,11.2210518 53.8844634,18.5366476 C47.9308215,23.9923462 42.4733164,29.8200242 36.6437086,35.5237091 L36.6437086,35.7716954 C40.3647348,38.4995447 45.9462742,37.879579 49.5432662,34.4077708 C52.8921898,31.1839489 56.1170791,27.8361338 59.4660027,24.4883188 C61.2024816,22.7524147 62.0707211,22.7524147 63.8072,24.4883188 C67.9003288,28.5800927 72.1174919,32.7958598 76.2106207,36.8876338 C80.9239206,41.4753803 85.7612547,46.3111132 90.722623,51.146846 L90.722623,51.146846 Z" id="Path" fill="#1A5F7A"></path>
                    <path d="M36.6457205,59.8303581 C34.2890706,61.9382416 32.0564548,64.1701183 29.9478733,66.5259882 C28.583497,68.1378991 28.8315655,70.3697758 30.4440102,71.8576936 C31.9324206,73.3456114 34.2890706,73.3456114 35.7774811,71.9816868 C37.8860626,69.9977964 39.9946441,67.8899128 41.9791914,65.7820293 C43.2195335,64.5420978 43.4676019,63.05418 42.7233967,61.442269 C41.9791914,59.9543512 40.7388494,59.2103923 38.6302678,58.962406 C37.9431943,58.962406 37.2658915,59.3343855 36.6457205,59.8303581 Z" id="Path" fill="#1A5F7A"></path>
                    <path d="M52.0744432,71.6383384 C52.074443,70.5875444 51.2062038,68.6625028 49.5937591,68.042537 C47.9813144,67.2985781 46.4929039,67.5465644 45.2525618,68.7864959 C43.2680145,70.6463932 41.2834672,72.6302836 39.4229541,74.614174 C37.6864752,76.3500781 37.6864752,78.7059479 39.1748857,80.3178589 C40.9113646,82.053763 43.2680145,82.053763 45.0044934,80.3178589 C46.9890407,78.4579616 48.8495539,76.5980644 50.710067,74.614174 C52.3410723,72.6128464 52.0744432,71.6383384 52.0744432,71.6383384 Z" id="Path" fill="#1A5F7A"></path>
                    <path d="M20.3977294,60.0050025 C20.6457978,61.8648997 21.5140373,63.1048312 23.0024478,63.8487901 C24.6148925,64.592749 26.103303,64.3447627 27.343645,63.1048312 C29.4522266,61.1209408 31.4367739,59.0130573 33.4213212,57.0291669 C35.0337659,55.4172559 34.9097317,53.0613861 33.4213212,51.5734683 C31.8088765,49.9615573 29.4522266,49.8375642 27.8397819,51.4494751 C25.8552345,53.4333655 23.746653,55.4172559 21.8861399,57.5251395 C21.1419347,58.1451052 20.769832,59.1370504 20.3977294,60.0050025 L20.3977294,60.0050025 Z" id="Path" fill="#1A5F7A"></path>
                    <path d="M36.3557262,83.7917076 L6.15810182,83.7917076 L6.15810182,83.6090159 L6.06850366,83.6090159 L6.06850366,68.7043001 L10.0384285,68.7043001 L10.0384285,79.8217828 L33.7769797,79.8217828 C34.145534,81.1987642 34.8454633,82.410113 35.9386634,83.4248914 C36.0753974,83.5518166 36.2144385,83.674129 36.3557262,83.7917076 Z M63.6224652,83.7917076 L100.384781,83.7917076 L100.384781,79.8217828 L71.5158583,79.8217828 C69.4388016,81.4630153 67.0090976,81.9228529 64.3424969,81.3170079 C64.2315615,82.2411635 63.9773084,83.0551113 63.6224652,83.7917076 Z M48.9152571,10.80441 L53.2780347,6.44163241 L57.9531635,11.1167611 C59.2525652,10.488938 60.5831733,9.9481059 61.9475354,9.4968116 L53.2992171,0.848493214 L53.2781696,0.869540663 L53.2569873,0.848358347 L45.375963,8.72938261 C46.5897528,9.33268828 47.7727973,10.0242878 48.9152571,10.80441 Z M9.00942558,50.7102416 L2.9881364,56.7315308 L0.180975642,53.92437 L7.04618488,47.0591608 C7.61827811,48.3248208 8.27549148,49.5402483 9.00942558,50.7102416 Z M98.5018453,46.0511214 L105.560361,53.1096368 L102.7532,55.9167976 L96.7064605,49.8700582 C97.4072661,48.6291027 98.0061534,47.355911 98.5018453,46.0511214 Z" id="Combined-Shape" fill="#493730"></path>
                </g>
            </g>
        </g>
    </g>
</svg>